# xmcd
#
# Track frame offsets:
#	150
#	10482
#	23225
#	31735
#	41170
#	51472
#	60845
#	73242
#	83557
#	93067
#
# Disc length: 1373 seconds
#
# Revision: 0
# Processed by: cddbd v1.4PL0 Copyright (c) Steve Scherf et al.
# Submitted via: EasyCDDAExtractor 4.6.9.1
#
DISCID=77055b0a
DTITLE=Johnny Cash - Big Country
DYEAR=1995
DGENRE=Country
TTITLE0=Hey Porter
TTITLE1=Give My Love to Rose
TTITLE2=Guess Things Happen That Way
TTITLE3=Luther Played the Boogie
TTITLE4=I Could Never Be Ashamed of You
TTITLE5=Blue Train
TTITLE6=I Walk the Line
TTITLE7=The Ways of a Woman in Love
TTITLE8=Down the Street to 301
TTITLE9=Goodbye Little Darling
EXTD=
EXTT0=
EXTT1=
EXTT2=
EXTT3=
EXTT4=
EXTT5=
EXTT6=
EXTT7=
EXTT8=
EXTT9=
PLAYORDER=
